<?xml version="1.0" standalone="no"?>
<!DOCTYPE svg PUBLIC "-//W3C//DTD SVG 20010904//EN"
 "http://www.w3.org/TR/2001/REC-SVG-20010904/DTD/svg10.dtd">
<svg version="1.0" xmlns="http://www.w3.org/2000/svg"
 width="512.000000pt" height="512.000000pt" viewBox="0 0 512.000000 512.000000"
 preserveAspectRatio="xMidYMid meet">
<metadata>
Created by potrace 1.11, written by Peter Selinger 2001-2013
</metadata>
<g transform="translate(0.000000,512.000000) scale(0.100000,-0.100000)"
fill="#000000" stroke="none">
<path d="M1407 3564 c-1 -1 -45 -4 -97 -8 -201 -12 -409 -64 -560 -141 l-48
-24 9 -43 c15 -81 61 -213 106 -302 219 -440 660 -812 1213 -1025 47 -18 94
-37 105 -41 58 -24 229 -74 370 -108 l160 -39 25 -59 c65 -154 144 -269 269
-394 267 -266 602 -353 1003 -259 48 11 90 24 93 29 3 4 -19 15 -48 25 -28 9
-82 34 -119 56 -156 92 -240 208 -243 337 l-1 67 65 32 c107 52 226 185 266
298 27 75 25 216 -3 274 -28 56 -27 63 3 93 75 75 316 63 564 -26 69 -25 72
-22 44 36 -69 144 -252 352 -390 446 -153 103 -365 191 -522 216 -154 25 -304
6 -385 -49 -44 -30 -56 -31 -83 -6 -30 28 -302 191 -409 244 -139 70 -277 130
-404 177 -63 23 -124 45 -135 50 -37 16 -208 61 -315 84 -104 23 -118 25 -175
32 -27 4 -53 8 -56 10 -3 2 -57 6 -120 10 -63 3 -129 7 -147 8 -18 1 -33 1
-35 0z"/>
</g>
</svg>
